<svg width="99" height="100" viewBox="0 0 99 100" fill="none" xmlns="http://www.w3.org/2000/svg">
<g clip-path="url(#clip0_2187_1495)">
<path d="M26.0862 52.3203H6.11621C2.80621 52.3203 0.116211 55.0103 0.116211 58.3203V93.8003C0.116211 97.1103 2.80621 99.8003 6.11621 99.8003H41.5962C44.9062 99.8003 47.5962 97.1103 47.5962 93.8003V73.8303C36.1862 72.8203 27.0962 63.7303 26.0862 52.3203Z" fill="currentColor"/>
<path d="M47.606 26.5501V6.58008C47.606 3.27008 44.916 0.580078 41.606 0.580078H6.12598C2.81598 0.580078 0.125977 3.27008 0.125977 6.58008V42.0601C0.125977 45.3701 2.81598 48.0601 6.12598 48.0601H26.096C27.106 36.6501 36.196 27.5601 47.606 26.5501Z" fill="currentColor"/>
<path d="M99.3364 93.8003V58.3203C99.3364 55.0103 96.6464 52.3203 93.3364 52.3203H73.3664C72.3564 63.7303 63.2664 72.8203 51.8564 73.8303V93.8003C51.8564 97.1103 54.5464 99.8003 57.8564 99.8003H93.3364C96.6464 99.8003 99.3364 97.1103 99.3364 93.8003Z" fill="currentColor"/>
<path d="M99.3364 42.0698V6.58984C99.3364 3.27984 96.6464 0.589844 93.3364 0.589844H57.8564C54.5464 0.589844 51.8564 3.27984 51.8564 6.58984V26.5498C63.2664 27.5598 72.3564 36.6499 73.3664 48.0599H93.3364C96.6464 48.0599 99.3364 45.3699 99.3364 42.0599" fill="currentColor"/>
<path fill-rule="evenodd" clip-rule="evenodd" d="M49.7357 69.1301C39.1657 69.1301 30.5957 60.5701 30.5957 50.0001C30.5957 39.4301 39.1757 30.8701 49.7357 30.8701C60.2957 30.8701 68.8657 39.4401 68.8657 50.0001C68.8657 60.5601 60.3057 69.1301 49.7357 69.1301ZM49.7341 65.1309C56.8898 65.1309 62.6848 59.3291 62.6848 52.1802C62.6848 47.8567 60.5629 48.763 57.3043 50.1548C55.1747 51.0643 52.5596 52.1812 49.7341 52.1812C46.9091 52.1812 44.2934 51.0637 42.1627 50.1534C38.9015 48.76 36.7766 47.8521 36.7766 52.1802C36.7766 59.3359 42.5784 65.1309 49.7341 65.1309ZM37.174 44.7998C37.174 42.1388 39.3311 39.9793 41.9946 39.9793C44.6581 39.9793 46.8176 42.1363 46.8176 44.7998C46.8176 46.4108 46.0267 46.0729 44.8128 45.5543C44.0197 45.2154 43.0461 44.7994 41.9946 44.7994C40.9429 44.7994 39.9695 45.2152 39.1768 45.5537C37.9639 46.0718 37.174 46.4091 37.174 44.7998ZM62.2805 44.7998C62.2805 42.1363 60.121 39.9793 57.4575 39.9793C54.794 39.9793 52.6369 42.1388 52.6369 44.7998C52.6369 46.4091 53.4268 46.0718 54.6397 45.5537C55.4324 45.2152 56.4057 44.7994 57.4575 44.7994C58.509 44.7994 59.4826 45.2154 60.2757 45.5543C61.4896 46.0729 62.2805 46.4108 62.2805 44.7998Z" fill="currentColor"/>
</g>
<defs>
<clipPath id="clip0_2187_1495">
<rect width="99" height="100" fill="white"/>
</clipPath>
</defs>
</svg>