<svg width="382" height="100" viewBox="0 0 382 100" fill="none" xmlns="http://www.w3.org/2000/svg">
<g clip-path="url(#clip0_2190_1581)">
<path d="M26.0862 52.3203H6.11621C2.80621 52.3203 0.116211 55.0103 0.116211 58.3203V93.8003C0.116211 97.1103 2.80621 99.8003 6.11621 99.8003H41.5962C44.9062 99.8003 47.5962 97.1103 47.5962 93.8003V73.8303C36.1862 72.8203 27.0962 63.7303 26.0862 52.3203Z" fill="currentColor"/>
<path d="M47.606 26.5501V6.58008C47.606 3.27008 44.916 0.580078 41.606 0.580078H6.12598C2.81598 0.580078 0.125977 3.27008 0.125977 6.58008V42.0601C0.125977 45.3701 2.81598 48.0601 6.12598 48.0601H26.096C27.106 36.6501 36.196 27.5601 47.606 26.5501Z" fill="currentColor"/>
<path d="M99.3364 93.8003V58.3203C99.3364 55.0103 96.6464 52.3203 93.3364 52.3203H73.3664C72.3564 63.7303 63.2664 72.8203 51.8564 73.8303V93.8003C51.8564 97.1103 54.5464 99.8003 57.8564 99.8003H93.3364C96.6464 99.8003 99.3364 97.1103 99.3364 93.8003Z" fill="currentColor"/>
<path d="M99.3364 42.0698V6.58984C99.3364 3.27984 96.6464 0.589844 93.3364 0.589844H57.8564C54.5464 0.589844 51.8564 3.27984 51.8564 6.58984V26.5498C63.2664 27.5598 72.3564 36.6499 73.3664 48.0599H93.3364C96.6464 48.0599 99.3364 45.3699 99.3364 42.0599" fill="currentColor"/>
<path fill-rule="evenodd" clip-rule="evenodd" d="M49.7357 69.1301C39.1657 69.1301 30.5957 60.5701 30.5957 50.0001C30.5957 39.4301 39.1757 30.8701 49.7357 30.8701C60.2957 30.8701 68.8657 39.4401 68.8657 50.0001C68.8657 60.5601 60.3057 69.1301 49.7357 69.1301ZM49.7341 65.1309C56.8898 65.1309 62.6848 59.3291 62.6848 52.1802C62.6848 47.8567 60.5629 48.763 57.3043 50.1548C55.1747 51.0643 52.5596 52.1812 49.7341 52.1812C46.9091 52.1812 44.2934 51.0637 42.1627 50.1534C38.9015 48.76 36.7766 47.8521 36.7766 52.1802C36.7766 59.3359 42.5784 65.1309 49.7341 65.1309ZM37.174 44.7998C37.174 42.1388 39.3311 39.9793 41.9946 39.9793C44.6581 39.9793 46.8176 42.1363 46.8176 44.7998C46.8176 46.4108 46.0267 46.0729 44.8128 45.5543C44.0197 45.2154 43.0461 44.7994 41.9946 44.7994C40.9429 44.7994 39.9695 45.2152 39.1768 45.5537C37.9639 46.0718 37.174 46.4091 37.174 44.7998ZM62.2805 44.7998C62.2805 42.1363 60.121 39.9793 57.4575 39.9793C54.794 39.9793 52.6369 42.1388 52.6369 44.7998C52.6369 46.4091 53.4268 46.0718 54.6397 45.5537C55.4324 45.2152 56.4057 44.7994 57.4575 44.7994C58.509 44.7994 59.4826 45.2154 60.2757 45.5543C61.4896 46.0729 62.2805 46.4108 62.2805 44.7998Z" fill="currentColor"/>
<g clip-path="url(#clip1_2190_1581)">
<path d="M123 63.336V29.736H137.16C140.744 29.736 143.896 30.44 146.616 31.848C149.368 33.256 151.496 35.224 153 37.752C154.536 40.28 155.304 43.208 155.304 46.536C155.304 49.864 154.536 52.792 153 55.32C151.496 57.848 149.368 59.816 146.616 61.224C143.896 62.632 140.744 63.336 137.16 63.336H123ZM127.8 59.16H136.872C139.656 59.16 142.056 58.632 144.072 57.576C146.12 56.52 147.704 55.048 148.824 53.16C149.944 51.24 150.504 49.032 150.504 46.536C150.504 44.008 149.944 41.8 148.824 39.912C147.704 38.024 146.12 36.552 144.072 35.496C142.056 34.44 139.656 33.912 136.872 33.912H127.8V59.16ZM172.88 63.624C170.32 63.624 168.048 63.064 166.064 61.944C164.08 60.824 162.512 59.288 161.36 57.336C160.208 55.352 159.632 53.112 159.632 50.616C159.632 48.088 160.208 45.848 161.36 43.896C162.512 41.944 164.08 40.424 166.064 39.336C168.048 38.216 170.32 37.656 172.88 37.656C175.408 37.656 177.664 38.216 179.648 39.336C181.664 40.424 183.232 41.944 184.352 43.896C185.504 45.816 186.08 48.056 186.08 50.616C186.08 53.144 185.504 55.384 184.352 57.336C183.232 59.288 181.664 60.824 179.648 61.944C177.664 63.064 175.408 63.624 172.88 63.624ZM172.88 59.592C174.512 59.592 175.968 59.224 177.248 58.488C178.56 57.752 179.584 56.712 180.32 55.368C181.056 53.992 181.424 52.408 181.424 50.616C181.424 48.792 181.056 47.224 180.32 45.912C179.584 44.568 178.56 43.528 177.248 42.792C175.968 42.056 174.512 41.688 172.88 41.688C171.248 41.688 169.792 42.056 168.512 42.792C167.232 43.528 166.208 44.568 165.44 45.912C164.672 47.224 164.288 48.792 164.288 50.616C164.288 52.408 164.672 53.992 165.44 55.368C166.208 56.712 167.232 57.752 168.512 58.488C169.792 59.224 171.248 59.592 172.88 59.592ZM192.453 63.336V37.896H196.869V44.808L196.437 43.08C197.141 41.32 198.325 39.976 199.989 39.048C201.653 38.12 203.701 37.656 206.133 37.656V42.12C205.941 42.088 205.749 42.072 205.557 42.072C205.397 42.072 205.237 42.072 205.077 42.072C202.613 42.072 200.661 42.808 199.221 44.28C197.781 45.752 197.061 47.88 197.061 50.664V63.336H192.453ZM222.474 63.624C219.914 63.624 217.642 63.064 215.658 61.944C213.674 60.824 212.106 59.288 210.954 57.336C209.802 55.352 209.226 53.112 209.226 50.616C209.226 48.088 209.802 45.848 210.954 43.896C212.106 41.944 213.674 40.424 215.658 39.336C217.642 38.216 219.914 37.656 222.474 37.656C225.002 37.656 227.258 38.216 229.242 39.336C231.258 40.424 232.826 41.944 233.946 43.896C235.098 45.816 235.674 48.056 235.674 50.616C235.674 53.144 235.098 55.384 233.946 57.336C232.826 59.288 231.258 60.824 229.242 61.944C227.258 63.064 225.002 63.624 222.474 63.624ZM222.474 59.592C224.106 59.592 225.562 59.224 226.842 58.488C228.154 57.752 229.178 56.712 229.914 55.368C230.65 53.992 231.018 52.408 231.018 50.616C231.018 48.792 230.65 47.224 229.914 45.912C229.178 44.568 228.154 43.528 226.842 42.792C225.562 42.056 224.106 41.688 222.474 41.688C220.842 41.688 219.386 42.056 218.106 42.792C216.826 43.528 215.802 44.568 215.034 45.912C214.266 47.224 213.882 48.792 213.882 50.616C213.882 52.408 214.266 53.992 215.034 55.368C215.802 56.712 216.826 57.752 218.106 58.488C219.386 59.224 220.842 59.592 222.474 59.592ZM250.783 63.624C248.223 63.624 246.239 62.936 244.831 61.56C243.423 60.184 242.719 58.216 242.719 55.656V32.328H247.327V55.464C247.327 56.84 247.663 57.896 248.335 58.632C249.039 59.368 250.031 59.736 251.311 59.736C252.751 59.736 253.951 59.336 254.911 58.536L256.351 61.848C255.647 62.456 254.799 62.904 253.807 63.192C252.847 63.48 251.839 63.624 250.783 63.624ZM238.399 41.688V37.896H254.623V41.688H238.399ZM271.974 63.624C269.414 63.624 267.142 63.064 265.158 61.944C263.174 60.824 261.606 59.288 260.454 57.336C259.302 55.352 258.726 53.112 258.726 50.616C258.726 48.088 259.302 45.848 260.454 43.896C261.606 41.944 263.174 40.424 265.158 39.336C267.142 38.216 269.414 37.656 271.974 37.656C274.502 37.656 276.758 38.216 278.742 39.336C280.758 40.424 282.326 41.944 283.446 43.896C284.598 45.816 285.174 48.056 285.174 50.616C285.174 53.144 284.598 55.384 283.446 57.336C282.326 59.288 280.758 60.824 278.742 61.944C276.758 63.064 274.502 63.624 271.974 63.624ZM271.974 59.592C273.606 59.592 275.062 59.224 276.342 58.488C277.654 57.752 278.678 56.712 279.414 55.368C280.15 53.992 280.518 52.408 280.518 50.616C280.518 48.792 280.15 47.224 279.414 45.912C278.678 44.568 277.654 43.528 276.342 42.792C275.062 42.056 273.606 41.688 271.974 41.688C270.342 41.688 268.886 42.056 267.606 42.792C266.326 43.528 265.302 44.568 264.534 45.912C263.766 47.224 263.382 48.792 263.382 50.616C263.382 52.408 263.766 53.992 264.534 55.368C265.302 56.712 266.326 57.752 267.606 58.488C268.886 59.224 270.342 59.592 271.974 59.592ZM291.547 63.336V37.896H295.963V44.808L295.531 43.08C296.235 41.32 297.419 39.976 299.083 39.048C300.747 38.12 302.795 37.656 305.227 37.656V42.12C305.035 42.088 304.843 42.072 304.651 42.072C304.491 42.072 304.331 42.072 304.171 42.072C301.707 42.072 299.755 42.808 298.315 44.28C296.875 45.752 296.155 47.88 296.155 50.664V63.336H291.547ZM310.906 63.336V37.896H315.514V63.336H310.906ZM313.21 33C312.314 33 311.562 32.712 310.954 32.136C310.378 31.56 310.09 30.856 310.09 30.024C310.09 29.16 310.378 28.44 310.954 27.864C311.562 27.288 312.314 27 313.21 27C314.106 27 314.842 27.288 315.418 27.864C316.026 28.408 316.33 29.096 316.33 29.928C316.33 30.792 316.042 31.528 315.466 32.136C314.89 32.712 314.138 33 313.21 33ZM337.896 37.656C339.976 37.656 341.8 38.056 343.368 38.856C344.968 39.656 346.216 40.872 347.112 42.504C348.008 44.136 348.456 46.2 348.456 48.696V63.336H343.848V49.224C343.848 46.76 343.24 44.904 342.024 43.656C340.84 42.408 339.16 41.784 336.984 41.784C335.352 41.784 333.928 42.104 332.712 42.744C331.496 43.384 330.552 44.328 329.88 45.576C329.24 46.824 328.92 48.376 328.92 50.232V63.336H324.312V37.896H328.728V44.76L328.008 42.936C328.84 41.272 330.12 39.976 331.848 39.048C333.576 38.12 335.592 37.656 337.896 37.656ZM368.12 72.936C365.784 72.936 363.512 72.6 361.304 71.928C359.128 71.288 357.352 70.36 355.976 69.144L358.184 65.592C359.368 66.616 360.824 67.416 362.552 67.992C364.28 68.6 366.088 68.904 367.976 68.904C370.984 68.904 373.192 68.2 374.6 66.792C376.008 65.384 376.712 63.24 376.712 60.36V54.984L377.192 49.944L376.952 44.856V37.896H381.32V59.88C381.32 64.36 380.2 67.656 377.96 69.768C375.72 71.88 372.44 72.936 368.12 72.936ZM367.544 62.28C365.08 62.28 362.872 61.768 360.92 60.744C359 59.688 357.464 58.232 356.312 56.376C355.192 54.52 354.632 52.376 354.632 49.944C354.632 47.48 355.192 45.336 356.312 43.512C357.464 41.656 359 40.216 360.92 39.192C362.872 38.168 365.08 37.656 367.544 37.656C369.72 37.656 371.704 38.104 373.496 39C375.288 39.864 376.712 41.208 377.768 43.032C378.856 44.856 379.4 47.16 379.4 49.944C379.4 52.696 378.856 54.984 377.768 56.808C376.712 58.632 375.288 60.008 373.496 60.936C371.704 61.832 369.72 62.28 367.544 62.28ZM368.072 58.248C369.768 58.248 371.272 57.896 372.584 57.192C373.896 56.488 374.92 55.512 375.656 54.264C376.424 53.016 376.808 51.576 376.808 49.944C376.808 48.312 376.424 46.872 375.656 45.624C374.92 44.376 373.896 43.416 372.584 42.744C371.272 42.04 369.768 41.688 368.072 41.688C366.376 41.688 364.856 42.04 363.512 42.744C362.2 43.416 361.16 44.376 360.392 45.624C359.656 46.872 359.288 48.312 359.288 49.944C359.288 51.576 359.656 53.016 360.392 54.264C361.16 55.512 362.2 56.488 363.512 57.192C364.856 57.896 366.376 58.248 368.072 58.248Z" fill="currentColor"/>
</g>
</g>
<defs>
<clipPath id="clip0_2190_1581">
<rect width="382" height="100" fill="white"/>
</clipPath>
<clipPath id="clip1_2190_1581">
<rect width="259" height="46" fill="white" transform="translate(123 27)"/>
</clipPath>
</defs>
</svg>
