<svg width="128" height="128" viewBox="0 0 128 128" fill="none" xmlns="http://www.w3.org/2000/svg">
<rect width="128" height="128" rx="16" fill="none"/>
<path d="M37.7167 66.3682H15.5137C11.8336 66.3682 8.84277 69.3578 8.84277 73.0366V112.469C8.84277 116.148 11.8336 119.138 15.5137 119.138H54.961C58.6411 119.138 61.6319 116.148 61.6319 112.469V90.2744C48.946 89.1519 38.8396 79.0493 37.7167 66.3682Z" fill="currentColor"/>
<path d="M61.6426 37.7254V15.5307C61.6426 11.852 58.6518 8.8623 54.9717 8.8623H15.5244C11.8443 8.8623 8.85352 11.852 8.85352 15.5307V54.9633C8.85352 58.6421 11.8443 61.6317 15.5244 61.6317H37.7274C38.8504 48.9506 48.9568 38.848 61.6426 37.7254Z" fill="currentColor"/>
<path d="M119.157 112.469V73.0366C119.157 69.3578 116.166 66.3682 112.486 66.3682H90.2834C89.1604 79.0493 79.054 89.1519 66.3682 90.2744V112.469C66.3682 116.148 69.359 119.138 73.0391 119.138H112.486C116.166 119.138 119.157 116.148 119.157 112.469Z" fill="currentColor"/>
<path d="M119.157 54.974V15.5415C119.157 11.8627 116.166 8.87305 112.486 8.87305H73.0391C69.359 8.87305 66.3682 11.8627 66.3682 15.5415V37.7251C79.054 38.8476 89.1604 48.9502 90.2834 61.6314H112.486C116.166 61.6314 119.157 58.6417 119.157 54.9629" fill="currentColor"/>
<path fill-rule="evenodd" clip-rule="evenodd" d="M64.0097 85.0496C52.2578 85.0496 42.7295 75.536 42.7295 63.7885C42.7295 52.041 52.2689 42.5273 64.0097 42.5273C75.7505 42.5273 85.2788 52.0521 85.2788 63.7885C85.2788 75.5249 75.7616 85.0496 64.0097 85.0496ZM64.0079 80.6049C71.9638 80.6049 78.4067 74.1568 78.4067 66.2114C78.4067 61.4063 76.0475 62.4136 72.4246 63.9604C70.0568 64.9713 67.1494 66.2126 64.0079 66.2126C60.867 66.2126 57.9588 64.9705 55.5899 63.9588C51.9641 62.4102 49.6015 61.4012 49.6015 66.2114C49.6015 74.1643 56.052 80.6049 64.0079 80.6049ZM50.0434 58.0089C50.0434 55.0514 52.4416 52.6513 55.403 52.6513C58.3643 52.6513 60.7653 55.0486 60.7653 58.0089C60.7653 59.7993 59.8859 59.4238 58.5363 58.8473C57.6545 58.4707 56.5721 58.0084 55.403 58.0084C54.2336 58.0084 53.1514 58.4705 52.2701 58.8468C50.9216 59.4225 50.0434 59.7974 50.0434 58.0089ZM77.9572 58.0089C77.9572 55.0486 75.5562 52.6513 72.5949 52.6513C69.6335 52.6513 67.2353 55.0514 67.2353 58.0089C67.2353 59.7974 68.1135 59.4225 69.462 58.8468C70.3433 58.4705 71.4256 58.0084 72.5949 58.0084C73.764 58.0084 74.8465 58.4708 75.7282 58.8473C77.0778 59.4238 77.9572 59.7993 77.9572 58.0089Z" fill="currentColor"/>
</svg>
