<svg width="150" height="150" viewBox="0 0 150 150" fill="none" xmlns="http://www.w3.org/2000/svg">
<rect width="150" height="150" rx="16" fill="white"/>
<path d="M47.1968 77.5225H23.71C19.817 77.5225 16.6533 80.7073 16.6533 84.6261V126.633C16.6533 130.551 19.817 133.736 23.71 133.736H65.4382C69.3311 133.736 72.4948 130.551 72.4948 126.633V102.989C59.0754 101.793 48.3846 91.0313 47.1968 77.5225Z" fill="#1D1D1B"/>
<path d="M72.5065 47.0107V23.3673C72.5065 19.4485 69.3428 16.2637 65.4499 16.2637H23.7217C19.8288 16.2637 16.665 19.4485 16.665 23.3673V65.3737C16.665 69.2926 19.8288 72.4774 23.7217 72.4774H47.2085C48.3964 58.9686 59.0872 48.2065 72.5065 47.0107Z" fill="#1D1D1B"/>
<path d="M133.346 126.633V84.6261C133.346 80.7073 130.183 77.5225 126.29 77.5225H102.803C101.615 91.0313 90.9242 101.793 77.5049 102.989V126.633C77.5049 130.551 80.6686 133.736 84.5615 133.736H126.29C130.183 133.736 133.346 130.551 133.346 126.633Z" fill="#1D1D1B"/>
<path d="M133.346 65.3855V23.3791C133.346 19.4602 130.183 16.2754 126.29 16.2754H84.5615C80.6686 16.2754 77.5049 19.4602 77.5049 23.3791V47.0106C90.9242 48.2064 101.615 58.9685 102.803 72.4773H126.29C130.183 72.4773 133.346 69.2925 133.346 65.3736" fill="#1D1D1B"/>
<path fill-rule="evenodd" clip-rule="evenodd" d="M75.0107 97.4237C62.5792 97.4237 52.5 87.2892 52.5 74.7749C52.5 62.2605 62.591 52.126 75.0107 52.126C87.4303 52.126 97.5095 62.2724 97.5095 74.7749C97.5095 87.2773 87.4421 97.4237 75.0107 97.4237ZM75.0088 92.6889C83.4246 92.6889 90.2401 85.8199 90.2401 77.3559C90.2401 72.2372 87.7445 73.3102 83.9121 74.958C81.4074 76.0348 78.3319 77.3572 75.0088 77.3572C71.6863 77.3572 68.6099 76.0341 66.104 74.9563C62.2685 73.3066 59.7694 72.2317 59.7694 77.3559C59.7694 85.8279 66.5929 92.6889 75.0088 92.6889ZM60.2368 68.618C60.2368 65.4675 62.7737 62.9108 65.9063 62.9108C69.0388 62.9108 71.5787 65.4646 71.5787 68.618C71.5787 70.5253 70.6484 70.1252 69.2208 69.5112C68.288 69.11 67.143 68.6175 65.9063 68.6175C64.6693 68.6175 63.5245 69.1097 62.5923 69.5106C61.1657 70.1239 60.2368 70.5233 60.2368 68.618ZM89.7647 68.618C89.7647 65.4646 87.2248 62.9108 84.0922 62.9108C80.9597 62.9108 78.4228 65.4675 78.4228 68.618C78.4228 70.5233 79.3517 70.1239 80.7782 69.5106C81.7105 69.1097 82.8553 68.6175 84.0922 68.6175C85.3289 68.6175 86.474 69.11 87.4068 69.5112C88.8344 70.1252 89.7647 70.5253 89.7647 68.618Z" fill="#1D1D1B"/>
</svg>
